<?xml version="1.0" encoding="UTF-8"?>
<!DOCTYPE svg PUBLIC "-//W3C//DTD SVG 1.1//EN" "http://www.w3.org/Graphics/SVG/1.1/DTD/svg11.dtd">
<svg xmlns="http://www.w3.org/2000/svg" version="1.1" width="500px" height="500px" style="shape-rendering:geometricPrecision; text-rendering:geometricPrecision; image-rendering:optimizeQuality; fill-rule:evenodd; clip-rule:evenodd" xmlns:xlink="http://www.w3.org/1999/xlink">
<g><path style="opacity:1" fill="#f4cd55" d="M 257.5,111.5 C 255.557,102.894 254.557,93.8943 254.5,84.5C 253.167,84.5 251.833,84.5 250.5,84.5C 250.657,92.5206 250.323,100.521 249.5,108.5C 249.444,110.64 248.777,112.306 247.5,113.5C 247.785,104.633 248.285,95.9664 249,87.5C 249.094,82.7703 251.26,81.437 255.5,83.5C 256.298,85.0777 256.798,86.7444 257,88.5C 257.5,96.1594 257.666,103.826 257.5,111.5 Z"/></g>
<g><path style="opacity:1" fill="#fcc720" d="M 257.5,111.5 C 257.5,114.5 257.5,117.5 257.5,120.5C 257.13,131.716 257.797,142.716 259.5,153.5C 259.5,155.833 259.5,158.167 259.5,160.5C 259.5,161.5 259.5,162.5 259.5,163.5C 255.167,163.5 250.833,163.5 246.5,163.5C 247,151.839 247.333,140.173 247.5,128.5C 247.5,123.5 247.5,118.5 247.5,113.5C 248.777,112.306 249.444,110.64 249.5,108.5C 250.323,100.521 250.657,92.5206 250.5,84.5C 251.833,84.5 253.167,84.5 254.5,84.5C 254.557,93.8943 255.557,102.894 257.5,111.5 Z"/></g>
<g><path style="opacity:1" fill="#f7ca4b" d="M 201.5,106.5 C 207.682,119.026 213.682,131.693 219.5,144.5C 215.606,137.71 211.606,130.877 207.5,124C 207.167,123.833 206.833,123.667 206.5,123.5C 205.833,124.5 205.167,125.5 204.5,126.5C 203.808,125.975 203.308,125.308 203,124.5C 202.503,126.81 202.337,129.143 202.5,131.5C 197.639,120.431 193.305,109.098 189.5,97.5C 191.114,94.5731 193.447,93.9064 196.5,95.5C 198.453,99.0693 200.119,102.736 201.5,106.5 Z"/></g>
<g><path style="opacity:1" fill="#fcc81e" d="M 201.5,106.5 C 201.739,108.467 201.406,110.301 200.5,112C 204.588,114.344 206.422,117.844 206,122.5C 205.667,122.167 205.333,121.833 205,121.5C 203.89,123.037 202.39,123.703 200.5,123.5C 198.975,118.773 197.142,114.106 195,109.5C 194.176,106.118 194.343,102.784 195.5,99.5C 197.289,102.123 199.289,104.456 201.5,106.5 Z"/></g>
<g><path style="opacity:1" fill="#fbc92d" d="M 308.5,94.5 C 310.766,94.1412 312.599,94.8078 314,96.5C 314.333,99.6675 313.499,102.501 311.5,105C 311.833,105.333 312.167,105.667 312.5,106C 304.002,127.995 296.002,150.161 288.5,172.5C 283.849,171.178 279.182,169.845 274.5,168.5C 284.826,143.589 296.16,118.922 308.5,94.5 Z"/></g>
<g><path style="opacity:1" fill="#fac931" d="M 146.5,129.5 C 147.873,129.343 149.207,129.51 150.5,130C 168.874,146.176 187.207,162.343 205.5,178.5C 206.833,179.833 206.833,181.167 205.5,182.5C 202.85,185.651 200.016,188.651 197,191.5C 179.639,172.807 162.305,154.141 145,135.5C 144.252,133.16 144.752,131.16 146.5,129.5 Z"/></g>
<g><path style="opacity:0.173" fill="#f6df81" d="M 257.5,120.5 C 259.111,131.291 259.778,142.291 259.5,153.5C 257.797,142.716 257.13,131.716 257.5,120.5 Z"/></g>
<g><path style="opacity:1" fill="#fac931" d="M 219.5,144.5 C 223.531,151.554 227.198,158.887 230.5,166.5C 226.897,168.64 223.231,170.807 219.5,173C 218.365,173.749 217.365,173.583 216.5,172.5C 211.388,158.826 206.721,145.16 202.5,131.5C 202.337,129.143 202.503,126.81 203,124.5C 203.308,125.308 203.808,125.975 204.5,126.5C 205.167,125.5 205.833,124.5 206.5,123.5C 206.833,123.667 207.167,123.833 207.5,124C 211.606,130.877 215.606,137.71 219.5,144.5 Z"/></g>
<g><path style="opacity:0.255" fill="#f1ce64" d="M 247.5,128.5 C 247.333,140.173 247,151.839 246.5,163.5C 250.833,163.5 255.167,163.5 259.5,163.5C 259.5,162.5 259.5,161.5 259.5,160.5C 260.844,162.185 260.677,163.852 259,165.5C 254.652,164.939 250.319,164.606 246,164.5C 245.219,152.298 245.719,140.298 247.5,128.5 Z"/></g>
<g><path style="opacity:1" fill="#fbc933" d="M 301.5,183.5 C 300.972,182.153 300.805,180.819 301,179.5C 312.664,169.668 323.83,159.335 334.5,148.5C 340.634,142.201 346.967,136.034 353.5,130C 359.241,129.005 361.075,131.171 359,136.5C 343.695,153.141 328.362,169.807 313,186.5C 311.611,188.227 309.944,189.561 308,190.5C 305.65,188.318 303.484,185.985 301.5,183.5 Z"/></g>
<g><path style="opacity:0.467" fill="#f5d46f" d="M 334.5,148.5 C 323.83,159.335 312.664,169.668 301,179.5C 300.805,180.819 300.972,182.153 301.5,183.5C 299.554,182.746 298.721,181.412 299,179.5C 310.725,168.935 322.558,158.602 334.5,148.5 Z"/></g>
<g><path style="opacity:0.594" fill="#f5d066" d="M 283.5,183.5 C 268.469,176.962 252.802,174.962 236.5,177.5C 239.534,175.982 242.867,175.149 246.5,175C 256.973,173.796 266.973,175.129 276.5,179C 279.239,180.026 281.572,181.526 283.5,183.5 Z"/></g>
<g><path style="opacity:1" fill="#fdc81f" d="M 283.5,183.5 C 291.327,187.483 297.827,193.15 303,200.5C 310.094,212.302 313.261,224.969 312.5,238.5C 309.933,238.279 307.599,237.612 305.5,236.5C 301.75,234.906 297.75,233.739 293.5,233C 280.868,231.615 268.201,230.782 255.5,230.5C 249.789,230.505 244.456,231.172 239.5,232.5C 231.48,233.28 223.48,234.28 215.5,235.5C 208.466,236.395 201.466,237.395 194.5,238.5C 194.698,230.783 195.365,223.117 196.5,215.5C 200.926,200.55 210.093,189.217 224,181.5C 228.037,179.654 232.204,178.32 236.5,177.5C 252.802,174.962 268.469,176.962 283.5,183.5 Z"/></g>
<g><path style="opacity:1" fill="#fac92f" d="M 376.5,180.5 C 378.857,180.337 381.19,180.503 383.5,181C 384.76,182.814 384.76,184.647 383.5,186.5C 362.926,195.371 342.426,204.371 322,213.5C 321,213.167 320,212.833 319,212.5C 317.186,207.902 315.686,203.236 314.5,198.5C 334.898,193.404 355.565,187.404 376.5,180.5 Z"/></g>
<g><path style="opacity:1" fill="#fac831" d="M 121.5,180.5 C 124.874,180.674 128.207,181.174 131.5,182C 151.246,188.37 171.246,193.87 191.5,198.5C 190.244,203.686 188.41,208.686 186,213.5C 164.488,204.605 142.988,195.605 121.5,186.5C 120.306,184.484 120.306,182.484 121.5,180.5 Z"/></g>
<g><path style="opacity:1" fill="#93bf1c" d="M 141.5,220.5 C 142.957,222.242 144.124,224.242 145,226.5C 145.667,232.833 145.667,239.167 145,245.5C 144.722,246.416 144.222,247.082 143.5,247.5C 138.814,233.65 129.814,223.817 116.5,218C 125.767,227.273 132.6,238.107 137,250.5C 137.765,252.066 137.598,253.399 136.5,254.5C 136.5,253.833 136.167,253.5 135.5,253.5C 133.735,252.539 131.735,252.205 129.5,252.5C 129.5,251.5 129.5,250.5 129.5,249.5C 127.143,249.663 124.81,249.497 122.5,249C 118.986,246.843 115.652,244.509 112.5,242C 112.833,241.667 113.167,241.333 113.5,241C 110.611,239.683 109.944,237.683 111.5,235C 110.192,232.663 109.192,230.163 108.5,227.5C 107.702,229.078 107.202,230.744 107,232.5C 106.667,232.167 106.333,231.833 106,231.5C 105.667,227.167 105.333,222.833 105,218.5C 104.333,217.167 103.667,217.167 103,218.5C 102.216,215.24 102.383,212.073 103.5,209C 102.833,208 102.167,207 101.5,206C 107.388,204.204 113.388,204.204 119.5,206C 124.237,207.702 128.57,209.868 132.5,212.5C 132.354,214.942 133.187,215.609 135,214.5C 137.455,215.743 138.622,217.743 138.5,220.5C 139.5,220.5 140.5,220.5 141.5,220.5 Z"/></g>
<g><path style="opacity:1" fill="#94be24" d="M 150.5,259.5 C 154.219,247.597 161.552,238.43 172.5,232C 165.134,232.412 159.134,235.579 154.5,241.5C 151.712,245.256 149.045,248.923 146.5,252.5C 147.747,246.414 149.247,240.414 151,234.5C 155.327,226.903 161.827,222.07 170.5,220C 176.503,219.056 182.503,218.223 188.5,217.5C 187.625,228.285 184.125,238.285 178,247.5C 175.408,250.762 172.241,253.262 168.5,255C 162.437,256.642 156.437,258.142 150.5,259.5 Z"/></g>
<g><path style="opacity:1" fill="#fbc827" d="M 345.5,225.5 C 358.179,225.592 371.179,226.592 384.5,228.5C 384.662,230.527 384.495,232.527 384,234.5C 381.876,235.227 379.709,235.894 377.5,236.5C 364.009,236.433 350.342,236.433 336.5,236.5C 331.833,236.5 327.167,236.5 322.5,236.5C 323.114,232.865 323.448,229.198 323.5,225.5C 330.833,225.5 338.167,225.5 345.5,225.5 Z"/></g>
<g><path style="opacity:0.071" fill="#f9d26c" d="M 345.5,225.5 C 338.167,225.5 330.833,225.5 323.5,225.5C 323.448,229.198 323.114,232.865 322.5,236.5C 327.167,236.5 331.833,236.5 336.5,236.5C 332.101,237.191 327.601,237.858 323,238.5C 321.558,233.691 321.058,228.691 321.5,223.5C 329.665,223.95 337.665,224.616 345.5,225.5 Z"/></g>
<g><path style="opacity:0.644" fill="#f3cd57" d="M 305.5,236.5 C 293.915,234.492 282.249,232.992 270.5,232C 260.14,231.267 249.806,231.433 239.5,232.5C 244.456,231.172 249.789,230.505 255.5,230.5C 268.201,230.782 280.868,231.615 293.5,233C 297.75,233.739 301.75,234.906 305.5,236.5 Z"/></g>
<g><path style="opacity:1" fill="#9abc37" d="M 141.5,220.5 C 140.5,220.5 139.5,220.5 138.5,220.5C 138.622,217.743 137.455,215.743 135,214.5C 133.187,215.609 132.354,214.942 132.5,212.5C 128.57,209.868 124.237,207.702 119.5,206C 113.388,204.204 107.388,204.204 101.5,206C 102.167,207 102.833,208 103.5,209C 102.383,212.073 102.216,215.24 103,218.5C 103.667,217.167 104.333,217.167 105,218.5C 105.333,222.833 105.667,227.167 106,231.5C 106.333,231.833 106.667,232.167 107,232.5C 107.202,230.744 107.702,229.078 108.5,227.5C 109.192,230.163 110.192,232.663 111.5,235C 109.944,237.683 110.611,239.683 113.5,241C 113.167,241.333 112.833,241.667 112.5,242C 115.652,244.509 118.986,246.843 122.5,249C 124.81,249.497 127.143,249.663 129.5,249.5C 129.5,250.5 129.5,251.5 129.5,252.5C 131.735,252.205 133.735,252.539 135.5,253.5C 117.686,252.317 106.519,242.984 102,225.5C 100.428,218.359 98.9278,211.192 97.5,204C 97.6301,202.941 98.1301,202.108 99,201.5C 112.648,201.564 125.148,205.397 136.5,213C 138.808,215.128 140.474,217.628 141.5,220.5 Z"/></g>
<g><path style="opacity:0.8" fill="#f1cc59" d="M 196.5,215.5 C 195.365,223.117 194.698,230.783 194.5,238.5C 201.466,237.395 208.466,236.395 215.5,235.5C 208.405,237.401 201.238,239.401 194,241.5C 193.667,241.167 193.333,240.833 193,240.5C 193.239,234.908 193.572,229.241 194,223.5C 194.098,220.478 194.932,217.811 196.5,215.5 Z"/></g>
<g><path style="opacity:1" fill="#4d9222" d="M 342.5,253.5 C 353.075,252.048 356.408,256.048 352.5,265.5C 342.877,269.047 338.711,265.713 340,255.5C 340.995,254.934 341.828,254.267 342.5,253.5 Z"/></g>
<g><path style="opacity:1" fill="#93be20" d="M 133.5,283.5 C 130.389,279.247 126.723,275.414 122.5,272C 120.598,270.699 118.598,270.032 116.5,270C 121.506,274.526 125.673,279.693 129,285.5C 129.579,286.928 129.412,288.262 128.5,289.5C 113.599,288.589 104.599,280.922 101.5,266.5C 101.167,263.833 100.833,261.167 100.5,258.5C 115.371,257.014 126.204,262.68 133,275.5C 133.497,278.146 133.664,280.813 133.5,283.5 Z"/></g>
<g><path style="opacity:1" fill="#a1bd56" d="M 134.5,286.5 C 133.596,285.791 133.263,284.791 133.5,283.5C 133.664,280.813 133.497,278.146 133,275.5C 126.204,262.68 115.371,257.014 100.5,258.5C 100.833,261.167 101.167,263.833 101.5,266.5C 99.9234,263.644 98.9234,260.478 98.5,257C 110.072,255.696 120.572,258.863 130,266.5C 134.101,272.497 135.601,279.163 134.5,286.5 Z"/></g>
<g><path style="opacity:1" fill="#50901c" d="M 143.5,247.5 C 143.064,250.364 143.897,252.697 146,254.5C 146.464,253.906 146.631,253.239 146.5,252.5C 149.045,248.923 151.712,245.256 154.5,241.5C 159.134,235.579 165.134,232.412 172.5,232C 161.552,238.43 154.219,247.597 150.5,259.5C 147.707,270.455 145.707,281.455 144.5,292.5C 143.549,293.919 143.216,295.585 143.5,297.5C 143.5,298.167 143.5,298.833 143.5,299.5C 143.167,302.5 144.5,303.833 147.5,303.5C 146.699,305.042 146.366,306.708 146.5,308.5C 145.803,311.291 144.803,313.958 143.5,316.5C 143.818,320.734 143.818,325.067 143.5,329.5C 139.958,329.813 136.625,329.479 133.5,328.5C 133.666,319.827 133.5,311.16 133,302.5C 132.377,297.794 130.877,293.461 128.5,289.5C 129.412,288.262 129.579,286.928 129,285.5C 125.673,279.693 121.506,274.526 116.5,270C 118.598,270.032 120.598,270.699 122.5,272C 126.723,275.414 130.389,279.247 133.5,283.5C 133.263,284.791 133.596,285.791 134.5,286.5C 135.479,287.765 136.479,289.099 137.5,290.5C 137.833,285.667 138.167,280.833 138.5,276C 138.052,269.517 138.052,263.517 138.5,258C 137.695,256.887 137.028,255.721 136.5,254.5C 137.598,253.399 137.765,252.066 137,250.5C 132.6,238.107 125.767,227.273 116.5,218C 129.814,223.817 138.814,233.65 143.5,247.5 Z"/></g>
<g><path style="opacity:1" fill="#53942a" d="M 189.5,298.5 C 193.727,296.72 198.394,295.886 203.5,296C 205.043,293.298 207.376,292.132 210.5,292.5C 210.863,287.231 210.029,282.231 208,277.5C 206.823,279.176 205.323,280.509 203.5,281.5C 202.682,284.107 202.182,286.774 202,289.5C 200.384,290.801 198.884,290.801 197.5,289.5C 200.435,287.553 201.101,284.886 199.5,281.5C 196.458,278.957 193.625,279.29 191,282.5C 190.727,284.329 189.893,285.829 188.5,287C 189.252,287.671 189.586,288.504 189.5,289.5C 188.849,290.091 188.182,290.757 187.5,291.5C 187.167,290.833 186.833,290.167 186.5,289.5C 187.07,285.274 187.737,281.108 188.5,277C 185.596,277.045 183.596,278.545 182.5,281.5C 185.131,283.005 184.797,283.671 181.5,283.5C 181.5,285.167 181.5,286.833 181.5,288.5C 178.459,288.406 176.793,289.906 176.5,293C 177.13,296.129 177.796,299.296 178.5,302.5C 179.814,301.687 180.981,300.687 182,299.5C 182.792,303.086 181.959,306.253 179.5,309C 184.942,318.493 192.942,321.159 203.5,317C 205.439,316.092 206.439,314.592 206.5,312.5C 207.5,312.5 208.5,312.5 209.5,312.5C 209.5,311.5 209.5,310.5 209.5,309.5C 205.985,310.239 202.652,310.239 199.5,309.5C 203.284,308.679 206.951,307.679 210.5,306.5C 211.738,312.514 209.405,316.681 203.5,319C 187.865,322.94 178.365,317.107 175,301.5C 173.582,287.498 179.082,277.331 191.5,271C 209.058,269.211 215.891,276.711 212,293.5C 210.442,295.768 208.276,296.934 205.5,297C 200.22,298.095 194.887,298.595 189.5,298.5 Z M 197.5,289.5 C 194.728,290.767 192.061,290.767 189.5,289.5C 189.586,288.504 189.252,287.671 188.5,287C 189.893,285.829 190.727,284.329 191,282.5C 193.625,279.29 196.458,278.957 199.5,281.5C 201.101,284.886 200.435,287.553 197.5,289.5 Z"/></g>
<g><path style="opacity:1" fill="#4b961a" d="M 433.5,280.5 C 433.389,282.648 434.056,282.981 435.5,281.5C 436.474,283.743 436.808,286.076 436.5,288.5C 431.821,288.334 427.155,288.501 422.5,289C 422,289.5 421.5,290 421,290.5C 420.501,295.155 420.334,299.821 420.5,304.5C 416.487,305.168 414.487,303.501 414.5,299.5C 414.649,297.68 415.316,296.18 416.5,295C 415.414,291.741 414.08,288.574 412.5,285.5C 408.695,288.261 404.361,289.261 399.5,288.5C 399.975,285.918 399.308,283.918 397.5,282.5C 399.3,280.95 401.467,279.95 404,279.5C 407.057,280.451 410.223,280.784 413.5,280.5C 412.918,276.823 412.585,272.99 412.5,269C 413.167,267.333 413.833,265.667 414.5,264C 417.429,263.223 420.263,263.39 423,264.5C 423.333,269.167 423.667,273.833 424,278.5C 424.5,279 425,279.5 425.5,280C 428.462,280.301 431.128,280.468 433.5,280.5 Z"/></g>
<g><path style="opacity:0.861" fill="#9cb94a" d="M 146.5,308.5 C 146.366,306.708 146.699,305.042 147.5,303.5C 151.567,302.699 155.567,301.699 159.5,300.5C 159.5,299.167 159.5,297.833 159.5,296.5C 161.144,296.714 162.644,296.38 164,295.5C 164.909,292.487 165.742,289.487 166.5,286.5C 163.482,286.335 160.482,286.502 157.5,287C 154.936,288.396 152.269,289.563 149.5,290.5C 154.953,285.016 161.62,283.016 169.5,284.5C 168.249,297.251 161.249,304.084 148.5,305C 147.915,306.302 147.249,307.469 146.5,308.5 Z"/></g>
<g><path style="opacity:1" fill="#4c9521" d="M 270.5,270.5 C 287.018,268.848 295.685,276.348 296.5,293C 294.646,312.877 283.979,321.543 264.5,319C 256.071,315.327 251.737,308.827 251.5,299.5C 251.628,285.535 257.961,275.868 270.5,270.5 Z M 273.5,279.5 C 276.808,278.974 278.974,280.307 280,283.5C 282.593,292.33 281.593,300.664 277,308.5C 272.121,311.066 268.621,309.566 266.5,304C 266.534,299.487 266.534,294.987 266.5,290.5C 267.714,285.986 270.047,282.319 273.5,279.5 Z"/></g>
<g><path style="opacity:0.933" fill="#5f933e" d="M 226.5,275.5 C 224.625,278.889 222.458,282.223 220,285.5C 216.451,291.9 215.785,298.566 218,305.5C 219.87,309.24 221.703,312.906 223.5,316.5C 218.152,311.795 215.485,305.795 215.5,298.5C 215.652,291.192 217.819,284.525 222,278.5C 223.129,276.859 224.629,275.859 226.5,275.5 Z"/></g>
<g><path style="opacity:1" fill="#4a941e" d="M 223.5,316.5 C 221.703,312.906 219.87,309.24 218,305.5C 215.785,298.566 216.451,291.9 220,285.5C 222.458,282.223 224.625,278.889 226.5,275.5C 226.541,273.255 227.375,272.588 229,273.5C 235.667,269.5 242.333,269.5 249,273.5C 249.784,276.76 249.617,279.927 248.5,283C 244.65,281.836 240.65,281.502 236.5,282C 232.835,283.668 230.668,286.501 230,290.5C 228.154,297 229.654,302.833 234.5,308C 238.598,309.864 242.431,309.364 246,306.5C 248.058,307.058 249.225,308.391 249.5,310.5C 248.459,314.424 246.126,317.257 242.5,319C 235.795,320.994 229.462,320.16 223.5,316.5 Z"/></g>
<g><path style="opacity:1" fill="#479518" d="M 189.5,289.5 C 192.061,290.767 194.728,290.767 197.5,289.5C 198.884,290.801 200.384,290.801 202,289.5C 202.182,286.774 202.682,284.107 203.5,281.5C 205.323,280.509 206.823,279.176 208,277.5C 210.029,282.231 210.863,287.231 210.5,292.5C 207.376,292.132 205.043,293.298 203.5,296C 198.394,295.886 193.727,296.72 189.5,298.5C 188.476,305.82 191.809,309.487 199.5,309.5C 202.652,310.239 205.985,310.239 209.5,309.5C 209.5,310.5 209.5,311.5 209.5,312.5C 208.5,312.5 207.5,312.5 206.5,312.5C 206.439,314.592 205.439,316.092 203.5,317C 192.942,321.159 184.942,318.493 179.5,309C 181.959,306.253 182.792,303.086 182,299.5C 180.981,300.687 179.814,301.687 178.5,302.5C 177.796,299.296 177.13,296.129 176.5,293C 176.793,289.906 178.459,288.406 181.5,288.5C 181.5,286.833 181.5,285.167 181.5,283.5C 184.797,283.671 185.131,283.005 182.5,281.5C 183.596,278.545 185.596,277.045 188.5,277C 187.737,281.108 187.07,285.274 186.5,289.5C 186.833,290.167 187.167,290.833 187.5,291.5C 188.182,290.757 188.849,290.091 189.5,289.5 Z M 197.5,289.5 C 194.728,290.767 192.061,290.767 189.5,289.5C 189.586,288.504 189.252,287.671 188.5,287C 189.893,285.829 190.727,284.329 191,282.5C 193.625,279.29 196.458,278.957 199.5,281.5C 201.101,284.886 200.435,287.553 197.5,289.5 Z"/></g>
<g><path style="opacity:1" fill="#4c9421" d="M 367.5,270.5 C 369.746,270.936 371.913,271.603 374,272.5C 375.865,276.43 377.531,280.43 379,284.5C 382.1,279.955 385.434,275.622 389,271.5C 392.947,270.259 396.28,271.259 399,274.5C 399.667,275.167 399.667,275.833 399,276.5C 393.328,282.011 388.495,288.177 384.5,295C 387.869,302.325 392.203,309.492 397.5,316.5C 397.023,317.478 396.357,318.311 395.5,319C 390.713,319.879 386.047,319.545 381.5,318C 379.152,313.976 376.985,309.809 375,305.5C 372.081,310.34 368.914,315.006 365.5,319.5C 361.5,320.463 358,319.463 355,316.5C 356.734,313.04 359.068,309.707 362,306.5C 364.398,302.943 366.565,299.277 368.5,295.5C 366.098,288.197 362.765,281.363 358.5,275C 358.645,274.228 358.978,273.561 359.5,273C 362.251,272.057 364.917,271.224 367.5,270.5 Z"/></g>
<g><path style="opacity:1" fill="#5f9639" d="M 397.5,282.5 C 399.308,283.918 399.975,285.918 399.5,288.5C 404.361,289.261 408.695,288.261 412.5,285.5C 414.08,288.574 415.414,291.741 416.5,295C 415.316,296.18 414.649,297.68 414.5,299.5C 414.487,303.501 416.487,305.168 420.5,304.5C 420.334,299.821 420.501,295.155 421,290.5C 421.5,290 422,289.5 422.5,289C 427.155,288.501 431.821,288.334 436.5,288.5C 436.808,286.076 436.474,283.743 435.5,281.5C 434.056,282.981 433.389,282.648 433.5,280.5C 434.94,279.637 436.274,279.637 437.5,280.5C 438.655,283.446 438.821,286.446 438,289.5C 433.263,290.469 428.43,290.803 423.5,290.5C 423.539,295.271 423.872,299.771 424.5,304C 421.042,305.415 417.375,305.915 413.5,305.5C 412.895,300.413 412.895,295.413 413.5,290.5C 408.456,290.827 403.456,290.494 398.5,289.5C 397.626,287.253 397.292,284.92 397.5,282.5 Z"/></g>
<g><path style="opacity:1" fill="#92be1c" d="M 147.5,303.5 C 144.5,303.833 143.167,302.5 143.5,299.5C 144.833,298.833 144.833,298.167 143.5,297.5C 143.216,295.585 143.549,293.919 144.5,292.5C 144.56,293.043 144.893,293.376 145.5,293.5C 146.852,292.476 148.185,291.476 149.5,290.5C 152.269,289.563 154.936,288.396 157.5,287C 160.482,286.502 163.482,286.335 166.5,286.5C 165.742,289.487 164.909,292.487 164,295.5C 162.644,296.38 161.144,296.714 159.5,296.5C 159.5,297.833 159.5,299.167 159.5,300.5C 155.567,301.699 151.567,302.699 147.5,303.5 Z"/></g>
<g><path style="opacity:1" fill="#49951a" d="M 315.5,289.5 C 314.099,294.964 313.599,300.631 314,306.5C 314.5,307 315,307.5 315.5,308C 321.5,308.333 327.5,308.667 333.5,309C 332.692,309.308 332.025,309.808 331.5,310.5C 332.167,310.833 332.833,311.167 333.5,311.5C 332.102,313.13 331.102,314.964 330.5,317C 321.173,317.5 311.839,317.666 302.5,317.5C 302.333,306.828 302.5,296.161 303,285.5C 303.944,284.737 304.444,283.737 304.5,282.5C 303.925,277.012 303.258,271.679 302.5,266.5C 303.623,264.042 303.623,261.875 302.5,260C 303.056,257.763 304.056,255.763 305.5,254C 309.423,253.207 313.256,253.374 317,254.5C 317.667,264.167 317.667,273.833 317,283.5C 316.809,285.708 316.309,287.708 315.5,289.5 Z"/></g>
<g><path style="opacity:1" fill="#4f9623" d="M 341.5,271.5 C 345.106,271.211 348.606,271.544 352,272.5C 352.579,274.649 353.079,276.815 353.5,279C 352.606,291.927 352.606,305.427 353.5,319.5C 349.154,319.666 344.821,319.499 340.5,319C 340,318.5 339.5,318 339,317.5C 338.66,306.779 339.16,296.112 340.5,285.5C 340.615,282.608 340.281,279.608 339.5,276.5C 339.724,274.545 340.391,272.879 341.5,271.5 Z"/></g>
<g><path style="opacity:1" fill="#5d9739" d="M 302.5,266.5 C 303.258,271.679 303.925,277.012 304.5,282.5C 304.444,283.737 303.944,284.737 303,285.5C 302.5,296.161 302.333,306.828 302.5,317.5C 311.839,317.666 321.173,317.5 330.5,317C 331.102,314.964 332.102,313.13 333.5,311.5C 332.833,311.167 332.167,310.833 331.5,310.5C 332.025,309.808 332.692,309.308 333.5,309C 327.5,308.667 321.5,308.333 315.5,308C 315,307.5 314.5,307 314,306.5C 313.599,300.631 314.099,294.964 315.5,289.5C 315.5,295.167 315.5,300.833 315.5,306.5C 322.167,306.5 328.833,306.5 335.5,306.5C 335.665,310.182 335.499,313.848 335,317.5C 334.5,318 334,318.5 333.5,319C 322.59,319.82 311.757,319.653 301,318.5C 299.994,316.466 299.494,314.3 299.5,312C 301.053,296.867 302.053,281.7 302.5,266.5 Z"/></g>
<g><path style="opacity:1" fill="#aa701d" d="M 133.5,328.5 C 136.625,329.479 139.958,329.813 143.5,329.5C 155.099,330.356 164.766,335.023 172.5,343.5C 176.795,348.287 181.628,352.621 187,356.5C 187.667,357.167 187.667,357.833 187,358.5C 168.085,367.075 148.252,369.909 127.5,367C 114.186,365.284 101.52,361.451 89.5,355.5C 88.914,355.709 88.414,356.043 88,356.5C 86.5993,354.808 84.7659,354.141 82.5,354.5C 86.618,351.939 90.9514,349.439 95.5,347C 99.3466,345.384 103.347,344.384 107.5,344C 114.782,336.525 123.448,331.359 133.5,328.5 Z"/></g>
<g><path style="opacity:1" fill="#80511f" d="M 172.5,343.5 C 184.241,342.158 194.908,345.325 204.5,353C 214.681,353.768 223.681,357.268 231.5,363.5C 222.616,368.074 213.282,371.574 203.5,374C 164.912,381.587 126.245,380.921 87.5,372C 79.0899,369.976 71.0899,366.976 63.5,363C 69.1856,358.716 75.5189,355.883 82.5,354.5C 84.7659,354.141 86.5993,354.808 88,356.5C 88.414,356.043 88.914,355.709 89.5,355.5C 101.52,361.451 114.186,365.284 127.5,367C 148.252,369.909 168.085,367.075 187,358.5C 187.667,357.833 187.667,357.167 187,356.5C 181.628,352.621 176.795,348.287 172.5,343.5 Z"/></g>
<g><path style="opacity:1" fill="#805630" d="M 76.5,391.5 C 82.2443,391.081 87.5776,392.248 92.5,395C 94.7707,398.075 95.9373,401.575 96,405.5C 96.6171,399.061 100.117,396.561 106.5,398C 107.931,398.465 109.097,399.299 110,400.5C 110.497,402.81 110.663,405.143 110.5,407.5C 107.585,407.746 104.585,408.079 101.5,408.5C 103.208,410.691 105.208,411.024 107.5,409.5C 109.167,409.833 110.167,410.833 110.5,412.5C 106.84,415.958 102.84,416.292 98.5,413.5C 97.0499,412.15 96.3832,410.484 96.5,408.5C 93.7684,410.035 91.1018,411.869 88.5,414C 84.1794,414.499 79.8461,414.666 75.5,414.5C 75.201,406.747 75.5343,399.08 76.5,391.5 Z M 82.5,396.5 C 88.0759,396.974 90.2426,399.974 89,405.5C 88.34,407.324 87.1733,408.657 85.5,409.5C 84.1667,409.5 82.8333,409.5 81.5,409.5C 81.1818,404.968 81.5151,400.634 82.5,396.5 Z M 102.5,401.5 C 105.137,403.154 104.803,403.654 101.5,403C 102.056,402.617 102.389,402.117 102.5,401.5 Z"/></g>
<g><path style="opacity:0.125" fill="#cfaf95" d="M 82.5,396.5 C 81.5151,400.634 81.1818,404.968 81.5,409.5C 82.8333,409.5 84.1667,409.5 85.5,409.5C 84.0813,410.451 82.4147,410.784 80.5,410.5C 80.1725,405.456 80.5059,400.456 81.5,395.5C 82.1067,395.624 82.44,395.957 82.5,396.5 Z"/></g>
<g><path style="opacity:0.976" fill="#784d29" d="M 183.5,402.5 C 183.5,404.167 183.5,405.833 183.5,407.5C 180.753,407.187 178.086,407.52 175.5,408.5C 177.068,410.544 178.902,410.878 181,409.5C 182.301,410.098 183.135,411.098 183.5,412.5C 179.417,416.452 175.251,416.452 171,412.5C 167.105,401.252 170.938,396.585 182.5,398.5C 182.433,399.959 182.766,401.292 183.5,402.5 Z"/></g>
<g><path style="opacity:1" fill="#795230" d="M 285.5,403.5 C 283.209,402.458 282.209,400.958 282.5,399C 296.066,395.753 300.4,400.92 295.5,414.5C 292.794,414.192 289.96,414.525 287,415.5C 285.289,415.561 283.956,414.894 283,413.5C 281.98,409.58 282.813,406.246 285.5,403.5 Z M 285.5,403.5 C 286.389,401.141 287.722,400.975 289.5,403C 288.207,403.49 286.873,403.657 285.5,403.5 Z M 288.5,407.5 C 291.674,407.952 292.007,408.952 289.5,410.5C 288.614,409.675 288.281,408.675 288.5,407.5 Z"/></g>
<g><path style="opacity:0.969" fill="#6e3f1a" d="M 308.5,391.5 C 310.167,391.5 311.833,391.5 313.5,391.5C 313.795,395.346 313.795,399.012 313.5,402.5C 312.517,406.298 312.183,410.298 312.5,414.5C 311.167,414.5 309.833,414.5 308.5,414.5C 308.5,406.833 308.5,399.167 308.5,391.5 Z"/></g>
<g><path style="opacity:0.988" fill="#764d2a" d="M 186.5,414.5 C 186.819,409.637 186.486,404.97 185.5,400.5C 185.461,399.244 185.961,398.244 187,397.5C 189.333,397.5 191.667,397.5 194,397.5C 195,398.167 196,398.833 197,399.5C 200.73,398.54 204.563,398.207 208.5,398.5C 208.5,399.833 208.5,401.167 208.5,402.5C 206.856,402.286 205.356,402.62 204,403.5C 203.501,407.152 203.335,410.818 203.5,414.5C 201.459,414.854 199.626,414.854 198,414.5C 198.645,409.847 198.478,405.18 197.5,400.5C 195.345,401.905 193.179,403.238 191,404.5C 190.216,407.76 190.383,410.927 191.5,414C 189.866,414.494 188.199,414.66 186.5,414.5 Z"/></g>
<g><path style="opacity:0.984" fill="#80532d" d="M 273.5,397.5 C 276.084,398.048 277.084,399.715 276.5,402.5C 274.61,402.297 273.11,402.963 272,404.5C 271.502,407.817 271.335,411.15 271.5,414.5C 269.833,414.5 268.167,414.5 266.5,414.5C 266.5,409.167 266.5,403.833 266.5,398.5C 269.059,398.802 271.393,398.468 273.5,397.5 Z"/></g>
<g><path style="opacity:1" fill="#764922" d="M 387.5,396.5 C 389.229,397.117 390.729,398.117 392,399.5C 392.674,398.422 393.674,397.755 395,397.5C 398.084,397.55 401.251,397.884 404.5,398.5C 411.046,394.827 415.713,396.327 418.5,403C 417.733,406.465 417.4,410.298 417.5,414.5C 414.272,414.299 411.105,414.633 408,415.5C 401.81,412.731 400.976,408.731 405.5,403.5C 405.192,402.692 404.692,402.025 404,401.5C 401.929,402.525 399.762,403.358 397.5,404C 397.658,407.288 397.658,410.788 397.5,414.5C 395.833,414.5 394.167,414.5 392.5,414.5C 392.666,409.821 392.499,405.155 392,400.5C 391.167,401.5 390.333,402.5 389.5,403.5C 387.939,402.653 386.439,402.986 385,404.5C 384.502,407.817 384.335,411.15 384.5,414.5C 382.473,414.662 380.473,414.495 378.5,414C 379.473,408.593 379.807,403.093 379.5,397.5C 381.591,397.318 383.591,397.652 385.5,398.5C 386.522,398.145 387.189,397.478 387.5,396.5 Z M 407.5,401.5 C 409.983,401.73 410.483,402.397 409,403.5C 407.97,403.164 407.47,402.497 407.5,401.5 Z M 409.5,408.5 C 413.243,408.459 413.41,409.126 410,410.5C 409.536,409.906 409.369,409.239 409.5,408.5 Z"/></g>
<g><path style="opacity:0.996" fill="#7e522f" d="M 366.5,397.5 C 369.881,397.46 373.214,397.793 376.5,398.5C 376.178,400.722 376.845,402.556 378.5,404C 377.663,405.011 377.33,406.178 377.5,407.5C 374.393,407.351 371.393,407.851 368.5,409C 371.146,409.497 373.813,409.664 376.5,409.5C 376.5,411.167 376.5,412.833 376.5,414.5C 365.353,417.843 360.52,413.843 362,402.5C 363.025,400.313 364.525,398.646 366.5,397.5 Z"/></g>
<g><path style="opacity:0.997" fill="#744a29" d="M 120.5,391.5 C 121.833,391.5 123.167,391.5 124.5,391.5C 124.5,399.167 124.5,406.833 124.5,414.5C 122.833,414.5 121.167,414.5 119.5,414.5C 119.201,406.747 119.534,399.08 120.5,391.5 Z"/></g>
<g><path style="opacity:0.98" fill="#784d2b" d="M 162.5,390.5 C 165.59,389.83 167.257,390.997 167.5,394C 167.215,395.89 166.215,397.223 164.5,398C 165.448,398.483 166.448,398.649 167.5,398.5C 167.828,403.875 167.495,409.208 166.5,414.5C 162.641,414.514 158.641,414.68 154.5,415C 153.299,414.097 152.465,412.931 152,411.5C 151.983,407.107 151.15,402.94 149.5,399C 150.87,397.559 151.87,395.892 152.5,394C 153.793,393.51 155.127,393.343 156.5,393.5C 156.343,394.873 156.51,396.207 157,397.5C 157.667,398.833 158.333,398.833 159,397.5C 161.091,399.56 160.758,401.227 158,402.5C 157.667,402.167 157.333,401.833 157,401.5C 156.333,404.5 156.333,407.5 157,410.5C 158.011,409.663 159.178,409.33 160.5,409.5C 160.413,412.598 160.913,412.932 162,410.5C 162.226,406.113 162.726,401.779 163.5,397.5C 161.257,395.407 160.923,393.074 162.5,390.5 Z"/></g>
<g><path style="opacity:1" fill="#7a4f29" d="M 235.5,397.5 C 238.793,397.428 242.46,397.928 246.5,399C 248.066,401.93 248.9,405.097 249,408.5C 250.728,405.047 253.562,403.214 257.5,403C 257,402.5 256.5,402 256,401.5C 254.301,402.406 252.467,402.739 250.5,402.5C 250.5,401.167 250.5,399.833 250.5,398.5C 254.658,396.872 258.658,397.205 262.5,399.5C 263.448,404.435 263.781,409.435 263.5,414.5C 259.815,414.895 256.148,415.062 252.5,415C 250.459,413.758 249.293,411.925 249,409.5C 246.572,414.041 242.739,416.041 237.5,415.5C 237.5,417.167 237.5,418.833 237.5,420.5C 235.833,420.5 234.167,420.5 232.5,420.5C 232.5,413.167 232.5,405.833 232.5,398.5C 233.791,398.737 234.791,398.404 235.5,397.5 Z M 239.5,401.5 C 243.146,402.462 244.313,404.795 243,408.5C 239.811,411.493 237.978,410.826 237.5,406.5C 237.437,404.486 238.103,402.819 239.5,401.5 Z M 256.5,408.5 C 258.657,409.053 258.49,410.053 256,411.5C 255.53,410.423 255.697,409.423 256.5,408.5 Z"/></g>
<g><path style="opacity:0.996" fill="#714523" d="M 353.5,390.5 C 359.158,389.679 360.825,391.846 358.5,397C 360.315,402.775 360.648,408.608 359.5,414.5C 357.5,414.5 355.5,414.5 353.5,414.5C 353.666,410.154 353.499,405.821 353,401.5C 351.301,402.406 349.467,402.739 347.5,402.5C 347.338,404.527 347.505,406.527 348,408.5C 352.604,409.457 353.438,411.624 350.5,415C 347.743,415.782 345.243,415.282 343,413.5C 342.197,408.911 341.03,404.411 339.5,400C 340.502,397.832 341.502,395.665 342.5,393.5C 344.045,392.548 345.712,392.215 347.5,392.5C 347.5,394.167 347.5,395.833 347.5,397.5C 349.467,397.261 351.301,397.594 353,398.5C 352.194,395.829 352.361,393.162 353.5,390.5 Z"/></g>
<g><path style="opacity:0.655" fill="#7f532f" d="M 131.5,397.5 C 136.005,396.822 139.171,398.489 141,402.5C 141.499,406.486 141.666,410.486 141.5,414.5C 138.449,414.364 135.449,414.698 132.5,415.5C 128.258,414.759 125.925,412.259 125.5,408C 127.158,406.376 128.825,404.709 130.5,403C 128.137,402.411 127.137,400.911 127.5,398.5C 129.099,398.768 130.432,398.434 131.5,397.5 Z M 133.5,407.5 C 135.892,408.742 135.725,410.075 133,411.5C 132.421,410.072 132.588,408.738 133.5,407.5 Z M 131.5,401.5 C 132.766,402.09 134.099,402.59 135.5,403C 133.537,403.844 132.204,403.344 131.5,401.5 Z"/></g>
<g><path style="opacity:0.098" fill="#e7ccad" d="M 185.5,400.5 C 186.486,404.97 186.819,409.637 186.5,414.5C 185.677,411.023 185.177,407.356 185,403.5C 184.79,405.058 184.29,406.391 183.5,407.5C 183.5,405.833 183.5,404.167 183.5,402.5C 184.833,402.5 185.5,401.833 185.5,400.5 Z"/></g>
<g><path style="opacity:0.263" fill="#a8856b" d="M 308.5,391.5 C 308.5,399.167 308.5,406.833 308.5,414.5C 309.833,414.5 311.167,414.5 312.5,414.5C 312.183,410.298 312.517,406.298 313.5,402.5C 314.658,403.573 314.658,404.739 313.5,406C 313.836,407.03 314.503,407.53 315.5,407.5C 315.5,408.833 315.5,410.167 315.5,411.5C 313.896,412.287 313.229,413.62 313.5,415.5C 311.5,415.5 309.5,415.5 307.5,415.5C 307.174,407.316 307.508,399.316 308.5,391.5 Z"/></g>
<g><path style="opacity:0.95" fill="#7e522b" d="M 213.5,397.5 C 218.005,396.822 221.171,398.489 223,402.5C 223.499,406.486 223.666,410.486 223.5,414.5C 220.449,414.364 217.449,414.698 214.5,415.5C 209.435,414.368 207.768,411.368 209.5,406.5C 211.295,404.297 213.629,403.131 216.5,403C 214.693,401.764 212.693,401.43 210.5,402C 209.663,400.989 209.33,399.822 209.5,398.5C 211.099,398.768 212.432,398.434 213.5,397.5 Z M 216.5,407.5 C 219.134,408.658 218.967,409.658 216,410.5C 214.205,409.281 214.372,408.281 216.5,407.5 Z"/></g>
<g><path style="opacity:0.004" fill="#fffe7a" d="M 264.5,411.5 C 265.525,411.897 265.692,412.563 265,413.5C 264.536,412.906 264.369,412.239 264.5,411.5 Z"/></g>
<g><path style="opacity:0.992" fill="#794f28" d="M 315.5,411.5 C 315.5,410.167 315.5,408.833 315.5,407.5C 316.29,406.206 317.29,405.039 318.5,404C 316.808,402.599 316.141,400.766 316.5,398.5C 320.658,396.872 324.658,397.205 328.5,399.5C 329.451,404.77 329.785,410.103 329.5,415.5C 325.601,414.817 321.601,414.65 317.5,415C 316.177,414.184 315.511,413.017 315.5,411.5 Z M 322.5,407.5 C 323.404,408.209 323.737,409.209 323.5,410.5C 319.995,410.306 319.662,409.306 322.5,407.5 Z"/></g>
</svg>
